<?xml version="1.0" encoding="UTF-8" standalone="no"?>
<svg width="512" height="512" viewBox="0 0 64 64" version="1.1" id="svg18" xmlns="http://www.w3.org/2000/svg"
  xmlns:svg="http://www.w3.org/2000/svg">
  <defs id="defs22" />
  <linearGradient id="a" x1="32" x2="32" y1="50" y2="12" gradientTransform="matrix(1.00993 0 0 1.0061 -.323 -.07)"
    gradientUnits="userSpaceOnUse">
    <stop offset="0" stop-color="#e6abff" id="stop2" />
    <stop offset="1" stop-color="#6dc7ff" id="stop4" />
  </linearGradient>
  <path d="M0 0h64v64H0z" style="fill:#1a1a1a;stroke-width:.127814" id="path7" />
  <path fill="url(#a)"
    d="M37.044 12.004h-10.1c-3.346 0-6.059 2.703-6.059 6.037v11.067c0 3.334 2.713 6.037 6.06 6.037h8.079v7.042h-6.06v-5.03h-8.079V50.237h22.219V33.131c0-3.334-2.713-6.036-6.06-6.036h-8.08v-7.043h6.06v5.03h8.08v-7.042c0-3.334-2.713-6.037-6.06-6.037z"
    style="fill:#eeeeee;stroke-width:1.00801;fill-opacity:1" id="path9" />
  <linearGradient id="b" x1="32" x2="32" y1="55" y2="7" gradientTransform="matrix(1.00993 0 0 1.0061 -.323 -.07)"
    gradientUnits="userSpaceOnUse">
    <stop offset="0" stop-color="#c822ff" id="stop11" />
    <stop offset="1" stop-color="#1a6dff" id="stop13" />
  </linearGradient>
  <path fill="url(#b)"
    d="M44.113 6.974H19.875c-6.125 0-11.11 4.965-11.11 11.067v37.226h46.458V18.04c0-6.102-4.984-11.067-11.11-11.067zm9.09 46.28H10.786V18.041c0-4.992 4.077-9.055 9.09-9.055h24.237c5.013 0 9.09 4.063 9.09 9.055zM15.33 46.212c-.836 0-1.514.676-1.514 1.509 0 .833.678 1.509 1.514 1.509.837 0 1.515-.676 1.515-1.51 0-.832-.678-1.508-1.515-1.508zm33.328 0c-.836 0-1.515.676-1.515 1.509 0 .833.679 1.509 1.515 1.509.836 0 1.515-.676 1.515-1.51 0-.832-.679-1.508-1.515-1.508zM15.33 16.029c-.836 0-1.514.676-1.514 1.509 0 .833.678 1.509 1.514 1.509.837 0 1.515-.676 1.515-1.51 0-.832-.678-1.508-1.515-1.508zm33.328 0c-.836 0-1.515.676-1.515 1.509 0 .833.679 1.509 1.515 1.509.836 0 1.515-.676 1.515-1.51 0-.832-.679-1.508-1.515-1.508z"
    style="fill:#f59e0b;stroke-width:1.00801;fill-opacity:1" id="path16" />
</svg>
