<svg xmlns="http://www.w3.org/2000/svg" width="300" height="280"><path d="M-.15-.2h300.268v280.388H-.15z" style="fill:#1a1a1a;stroke:none;stroke-width:.623622"/><path fill="#db0505" d="M58.85 41.053c2.603 1.278 3.867 2.215 5.37 4.686 1.856 1.832 2.093 1.918 4.54 1.982q1.736-.056 3.47-.157 1.909-.039 3.817-.073c1.994-.054 3.984-.122 5.976-.226 10.8-.52 10.8-.52 14.275 1.796 2.486 2.28 4.38 4.893 6.213 7.71 1.329 1.934 2.899 3.56 4.517 5.258 2.946 3.198 5.671 6.529 8.34 9.96 1.386 1.53 2.285 2.36 4.245 2.979 1.161-.498 2.32-1.002 3.464-1.54 6.288-2.46 12.434-1.06 18.439 1.54 3.219 1.916 5.939 4.314 8.478 7.065l.784-1.087c3.683-4.683 8.13-8.197 14.2-9.015 5.765-.428 10.21-.353 15.398 2.33 3.413-.4 4.955-2.886 7.021-5.387l2.448-2.895 1.267-1.51c2.046-2.427 4.135-4.816 6.22-7.21q1.105-1.269 2.209-2.541l.933-1.074c1.234-1.39 1.234-1.39 2.574-3.527 1.136-1.355 1.764-1.922 3.49-2.368 1.764-.12 3.481-.107 5.249-.044l1.933.018c2.03.024 4.06.077 6.09.131q2.07.031 4.138.058c3.376.047 6.75.12 10.125.207l.583-1.642c1.238-2.82 2.993-4.273 5.776-5.424 3.712-.625 7.411-.927 10.827.859 2.777 2.287 4.494 4.538 4.98 8.164.09 4.178.08 7.286-2.755 10.523-3.252 2.95-6.396 3.453-10.65 3.312-2.554-.374-4.017-1.385-5.935-3.074l-1.178-1.83c-1.883-1.946-3.02-2.167-5.683-2.303l-1.581-.018-1.653-.04q-1.731-.032-3.462-.035c-1.75-.013-3.493-.086-5.242-.163-6.2-.183-6.2-.183-11.577 2.512-1.603 1.965-2.914 3.96-4.244 6.116a110 110 0 0 1-3.18 3.533c-5.71 5.939-5.71 5.939-10.245 12.718.686 1.581.686 1.581 1.678 3.311 1.574 3.004 2.342 5.332 2.562 8.7l1.413.441c3.183 1.46 6.518 3.583 8.677 6.387 1.991 1.548 3.96 1.25 6.425 1.253l2.799.041c2.974-.402 4.133-.945 6.121-3.176.57-1.97.57-1.97.663-4.107.534-4.165 1.689-6.68 4.99-9.318 3.302-2.053 6.833-1.855 10.598-1.413 3.145 1.544 5.08 3.49 7.065 6.36 1.125 3.374 1.41 6.682.091 10.05-1.91 3.345-4.132 5.732-7.863 6.906-2.958.397-5.424.458-8.136-.87l-1.755-.543c-1.544.898-1.544.898-2.915 2.34-3.554 3.057-6.633 3.372-11.216 3.312.663 5.496 1.935 10.256 4.153 15.332.98 2.886 1.269 5.664 1.5 8.691 2.532-.016 5.062-.07 7.594-.132l2.175-.013c4.202-.02 4.202-.02 7.568-2.262l1.032-1.832c3.052-2.689 5.546-3.352 9.514-3.196 3.69.762 6.203 3.188 8.62 5.956 1.692 2.653 1.803 5.452 1.65 8.545-1.07 3.711-2.984 6.528-6.36 8.478-3.073 1.111-5.662 1.485-8.92 1.148-3.245-1.563-5.303-3.843-7.33-6.8v-1.413l-15.544.706-1.28 4.019c-.74 2.322-1.417 4.26-2.738 6.314-1.073 1.584-1.073 1.584-.826 3.216l.472 1.51c.935 3.064.903 5.78.84 8.964l2.558-.174c9.12-.428 9.12-.428 12.146 1.325q1.472 1.38 2.912 2.795c1.424 1.186 1.424 1.186 3.34.939q1.995-.466 3.977-.988c3.127-.595 5.551.188 8.274 1.755 3.066 2.624 4.683 5.798 5.21 9.76-.457 3.89-2.014 6.855-4.813 9.582-3.576 2.268-5.956 2.837-10.14 2.233-3.354-.813-5.289-2.582-7.435-5.192-1.573-2.971-2.189-5.582-1.59-8.92l.398-1.104-1.28-.618c-1.546-.795-1.546-.795-3.666-2.208-3.858-.551-7.456-.65-11.305 0-1.648 1.434-2.33 2.714-3.284 4.667-2.174 3.852-6.79 5.935-10.847 7.344l-2.194.185c-2.202.329-2.202.329-3.361 2.346l-1.024 2.282-1.052 2.266-.847 2.106-.687 1.44c-.028 1.992 1.032 2.873 2.359 4.255l1.066 1.061q1.086 1.13 2.166 2.264l1.105 1.152c2.085 2.236 3.972 4.635 5.883 7.02l1.532 1.885.776 1.308c1.606 2.41 2.724 3.479 5.61 4.1 2.63.179 5.2.177 7.833.112l2.73.04c2.444-.025 4.682-.11 7.074-.614 1.992-1.929 1.992-1.929 2.826-4.24 3.5-2.5 7.144-2.723 11.305-2.12 2.34 1.149 2.34 1.149 4.239 2.827l2.031 1.766c2.12 2.69 1.944 5.64 1.805 8.94-.403 2.674-1.333 4.25-3.13 6.251l-1.103 1.28c-2.762 2.282-6.641 1.86-10.025 1.842-2.933-.378-4.34-1.3-6.414-3.332-.92-1.337-1.18-2.458-1.534-4.03l-2.105.124c-2.602.142-5.204.23-7.81.304q-1.683.057-3.365.16c-9.301.546-9.301.546-12.813-2.215-1.606-1.974-2.96-3.977-4.289-6.144a41 41 0 0 0-1.943-2.186 177 177 0 0 1-9.993-11.655c-1.536-1.758-3.159-3.129-5.02-4.53l-1.232.674c-4.82 2.235-10.076 1.507-15.02.033-4.405-1.617-8.117-4.33-11.304-7.772V197.2h-1.413l-.486 1.192c-2.878 5.071-7.712 7.21-12.939 9.406-5.913 1.468-10.6.532-16.25-1.413l-1.631 1.916c-3.345 3.919-6.689 7.832-10.16 11.641-2.84 3.125-5.516 6.367-8.169 9.651-1.236 1.521-1.236 1.521-1.943 2.228-1.67.043-3.325.045-4.995.025l-3.114.012c-1.638.007-3.273.007-4.911-.02-6.37-.29-6.37-.29-12.095 1.967-1.207 1.402-2.17 2.81-3.147 4.375-3.124 1.562-7.197.996-10.598.706-3.186-1.397-4.975-3.241-6.577-6.364-1.202-3.464-.875-6.65.306-10.063 1.846-2.707 4.012-4.7 6.978-6.182 4.168-.555 7.543-.572 11.04 1.943 1.993 1.61 2.557 2.65 3.09 5.122 11.762 1.077 11.762 1.077 22.497-2.285 1.726-1.975 3.046-3.923 4.352-6.193a73 73 0 0 1 2.517-2.87l1.157-1.337a211 211 0 0 1 2.964-3.29l1.752-1.91 1.629-1.757c1.417-1.522 1.417-1.522 1.992-3.674-.83-1.539-.83-1.539-2.03-3.091-1.688-2.284-2.526-3.973-2.915-6.8l-2.032.22c-4.4-.026-8.262-2.216-11.481-5.097-2.506-2.72-3.799-4.97-4.858-8.548-1.68.043-3.355.104-5.034.177l-1.424.03c-3.543.174-5.664 1.064-8.379 3.326-.819 2.176-.819 2.176-.927 4.813-.477 3.937-2.224 6.262-5.211 8.832-3.39 1.727-6.495 2.5-10.24 1.48-3.584-1.57-5.967-3.81-7.645-7.353-.942-2.974-.833-5.26.133-8.258 1.802-3.293 3.354-5.894 6.933-7.286 2.056-.163 2.056-.163 4.283-.133l2.233.014c1.962.119 1.962.119 4.082.825 1.38-1.043 1.38-1.043 2.87-2.428 5.097-3.829 10.861-2.933 16.913-2.517l.13-1.576.18-2.09.173-2.061c.224-2.045.224-2.045.729-3.809.283-2.49-.612-3.76-1.83-5.92-1.931-3.44-2.318-5.099-2.914-9.273H68.742l-1.413 4.239c-1.146 1.162-1.146 1.162-2.43 1.987l-1.277.853c-2.786 1.557-5.17 1.612-8.305 1.4-3.797-1.318-6.435-3.637-8.478-7.066-1.21-3.745-.916-7.162.648-10.748 1.635-2.703 3.946-4.167 6.638-5.768 2.913-.677 5.395-.645 8.258.265 2.138 1.416 3.992 2.988 5.652 4.946v1.413h16.25l1.414-7.772c1.413-3.489 1.413-3.489 2.155-5.208 1.012-2.802 1.4-5.65 1.805-8.592.279-1.744.279-1.744.986-3.157l-2.12.706c-3.8.451-5.609.305-8.655-2.075l-1.336-1.168c-1.428-1.083-2.37-1.48-4.14-1.702l-2.12.706c-3.9.548-6.92.473-10.2-1.855-2.713-2.35-4.287-4.487-4.88-8.105-.255-3.715.528-6.28 2.685-9.307 2.19-2.455 4.347-3.792 7.618-4.289 3.504-.147 6.052.36 9.017 2.36 2.951 3.197 4.442 5.691 4.327 10.068l-.038 1.91-.05 1.446 1.325.663 2.914 1.457c4.807.601 9.392 1.122 13.681-1.394 2.04-1.698 2.04-1.698 3.817-3.505 1.555-1.438 2.342-1.906 4.405-2.167l.133-2.031c.411-3.158 1.908-5.614 3.496-8.332.78-1.597.78-1.597.183-3.05-3.754-5.425-8.277-10.292-12.735-15.138a321 321 0 0 1-5.718-6.45c-.52-.595-1.051-1.18-1.61-1.739a138 138 0 0 0-5.478-.224l-1.66-.044q-2.635-.068-5.27-.13-1.782-.044-3.565-.092-4.377-.113-8.756-.217l-.604 1.298c-1.411 2.668-3.387 4.534-6.02 5.989-3.722.975-6.418.915-9.759-1.016-2.577-1.807-4.234-3.325-5.52-6.27-.523-3.962-.548-7.298 1.149-10.952 4.199-4.42 7.696-5.477 13.689-4.593m59.085 44.778c-3.15 4.04-3.82 8.146-3.268 13.16 1.148 4.675 3.25 8.261 7.419 10.818 2.44 1.397 2.44 1.397 5.299 1.192l.414-1.65.557-2.147.547-2.136c.602-1.839.602-1.839 2.015-3.252 3.218.393 3.218.393 4.239 1.413a56 56 0 0 1-.03 3.32l-.046 2.061a355 355 0 0 1-.138 4.3c-.08 4.406.246 6.679 3.04 10.103.265 1.943.265 1.943 0 3.532-1.413 1.414-1.413 1.414-3.091 1.723-1.855-.31-1.855-.31-3.356-1.767-1.325-2.075-1.325-2.075-2.076-4.636-1.092-2.48-1.092-2.48-3.055-3.047a150 150 0 0 0-4.107-.925c-2.861-.77-4.615-2.247-6.924-4.065h-1.413l-.597-1.237c-.788-1.534-1.653-2.964-2.583-4.416a53 53 0 0 1-3.18-5.652l-4.945 2.826v1.413h-1.413c-2.708 4.316-4.98 8.196-3.958 13.463.327 1.18.723 2.34 1.132 3.494h1.413v-1.413l1.545-.566c2.64-1.126 4.904-2.688 7.286-4.277 2.126-.974 3.11-.821 5.3-.103.706.707.706.707 1.192 2.606-.486 2.34-.486 2.34-1.913 3.439q-1.883 1.089-3.792 2.13c-4.245 2.322-6.77 4.707-8.205 9.489-.075 1.686-.05 3.32.063 5.004-.063 1.355-.063 1.355-1.476 2.768-1.405.281-2.82.521-4.24.707-1.003-4.793-1.573-9.233-1.413-14.131-3.23 4.846-2.142 11.096-1.247 16.581.572 1.893 1.146 2.677 2.66 3.908l1.063-.723c5.118-3.36 9.12-4.73 15.188-3.516l2.12 1.413-.707 4.946c-2.107.51-3.822.696-6.006.618-3.632.13-5.212 1.525-7.904 3.842-3.58 4.16-3.348 8.908-3.27 14.161.376 4.34 1.733 6.84 4.683 9.95 2.292 1.333 4.22 1.605 6.845 1.81l.314-1.5c1.662-7.03 5.016-12.03 10.99-16.163 1.631-.844 3.217-1.485 4.946-2.12l.08-1.76c.795-13.5.795-13.5 4.866-18.023 2.252-.22 2.252-.22 4.24 0 1.032 2.019 1.545 3.05.932 5.28l-.844 1.83c-2.192 5.545-2.377 10.771-.398 16.427 1.895 4.2 4.986 6.828 8.435 9.759 1.06 1.325 1.06 1.325.927 3.224-.574 1.633-.574 1.633-1.28 2.34-3.82-.076-5.922-1.04-8.637-3.558-2.358-2.607-4.288-5.511-6.201-8.453-5.247 2.261-8.559 4.758-10.908 10.068-.825 5.506-.447 10.318 2.88 14.91 3.46 4.183 7.65 5.532 12.974 6.11 4.908-.503 8.619-2.091 12.01-5.653 2.413-3.41 2.913-6.182 2.931-10.304l.015-2.434.006-2.661.014-2.81q.021-4.611.03-9.222l.009-3.18q.02-7.474.029-14.947.011-8.613.054-17.224.031-6.666.034-13.332.001-3.976.026-7.953.025-3.745.012-7.49c0-1.345.013-2.69.027-4.034-.033-5.49-.536-10.378-4.422-14.542-4.157-3.848-8.014-4.661-13.598-4.545-4.366.448-7.218 2.24-10.16 5.429zm39.638-.48c-3.8 5.071-3.648 11.145-3.625 17.223l-.015 2.746c-.012 2.468-.011 4.937-.008 7.405q.001 3.103-.006 6.205-.014 7.324 0 14.648a2822 2822 0 0 1-.021 15.064q-.023 6.49-.016 12.98.005 3.864-.012 7.73c-.013 2.877-.003 5.753.01 8.629l-.022 2.555c.05 5.529.636 10.874 4.387 15.207 3.386 3.235 6.862 4.137 11.488 4.504 4.884-.16 8.866-2.055 12.426-5.363 3.025-3.53 3.532-7.676 3.359-12.201-.542-4.79-2.147-7.676-5.84-10.759-1.802-1.098-3.647-1.671-5.661-2.28l-1.087 1.577c-6.088 8.629-6.088 8.629-10.66 10.48-1.677-.045-1.677-.045-3.311-1.414l-1.193-1.457c.686-2.467 1.158-3.37 3.356-4.77 3.26-2.256 5.674-5.486 6.997-9.264.913-5.611.678-11.175-1.397-16.464-.618-1.68-.745-3.06-.477-4.83 1.413-1.413 1.413-1.413 3.135-1.722 1.81.31 1.81.31 2.959 1.678 2.12 4.721 3.135 8.407 3.18 13.646.069 3.373.069 3.373 1.873 6.013 1.614.859 1.614.859 3.35 1.549 5.093 2.149 8.03 6.12 10.257 11.023a49 49 0 0 1 2.095 6.674c3.051-.802 5.656-1.491 8.037-3.621 3.332-5.896 3.701-10.885 2.56-17.576-1.36-4.013-3.973-6.58-7.771-8.478-2.178-.167-4.354-.27-6.536-.37l-1.943-.337c-1.413-2.12-1.413-2.12-1.28-3.93.574-1.722.574-1.722 2.693-3.135 6.347-1.002 11.435 1.44 16.957 4.239 1.826-3.463 1.623-6.875 1.59-10.687l.017-1.94-.006-1.863-.005-1.692c-.097-1.696-.097-1.696-1.596-3.601l-.707 12.01-3.532 1.414c-1.413-1.016-1.413-1.016-2.827-2.826-.088-1.43-.088-1.43 0-3.047.126-3.34-.561-5.746-2.826-8.258-2.42-1.91-5.012-3.501-7.714-4.982-1.162-.67-1.162-.67-2.884-2.083-.31-2.252-.31-2.252 0-4.24l.707-.706c3.819.031 6.721.616 9.891 2.826h1.413v1.413q2.08 1.475 4.24 2.826c1.345-4.036 1.532-8.947.116-12.99-2.141-3.657-5.308-6.302-8.595-8.913-1.385 1.385-1.866 2.27-2.65 4.019-3.288 6.589-7.546 9.388-14.307 12.232l-2.283.651c-1.997.585-1.997.585-2.964 2.062l-.626 1.482-.654 1.477a80 80 0 0 0-1.245 3.513c-2.385.088-2.385.088-4.946 0l-1.413-1.413c.262-2.528 1.121-4.528 2.208-6.8 1.891-4.568 1.346-8.73.14-13.433-.228-1.67-.228-1.67 1.185-3.79 2.208-.132 2.208-.132 4.239 0 1.729 3.082 2.475 5.672 2.826 9.185 4.21-.495 6.836-2.554 9.715-5.564 2.923-4.058 3.542-7.912 3.003-12.806-.986-4.014-2.635-7.63-6.16-10.002-7.893-4.385-14.832-2.867-21.588 2.722z" style="stroke-width:.706546"/></svg>