<?xml version="1.0" encoding="UTF-8"?>
<svg version="1.1" xmlns="http://www.w3.org/2000/svg" viewBox="0 0 180 180">
  <path
    d="M0 0 C59.4 0 118.8 0 180 0 C180 59.4 180 118.8 180 180 C120.6 180 61.2 180 0 180 C0 120.6 0 61.2 0 0 Z "
    fill="#eee" transform="translate(0,0)" />
  <path
    d="M0 0 C1.68128998 0.00045319 1.68128998 0.00045319 3.39654541 0.00091553 C4.60083191 0.02156067 5.80511841 0.04220581 7.04589844 0.06347656 C8.28321716 0.06913635 9.52053589 0.07479614 10.79534912 0.08062744 C14.0770528 0.09921905 17.35796625 0.13512658 20.6394043 0.17944336 C23.9909741 0.22043991 27.34257788 0.23830655 30.69433594 0.25878906 C37.26495734 0.30290252 43.83505076 0.36985079 50.40527344 0.45410156 C50.41985596 1.61981689 50.43443848 2.78553223 50.44946289 3.98657227 C50.5074046 8.30866278 50.58463738 12.63023003 50.66772461 16.9519043 C50.70099345 18.8229117 50.72901929 20.69401995 50.75170898 22.56518555 C50.78521932 25.2538554 50.83753209 27.94159954 50.89355469 30.62988281 C50.89994461 31.46747635 50.90633453 32.30506989 50.91291809 33.16804504 C50.90727291 37.43542845 50.90727291 37.43542845 52.68725586 41.17211914 C55.73606142 43.44713378 59.56156476 42.93783804 63.22949219 42.96582031 C64.0908931 42.98377151 64.95229401 43.00172272 65.83979797 43.0202179 C68.59074001 43.07439454 71.34150785 43.1082398 74.09277344 43.14160156 C75.95803209 43.17476819 77.82326774 43.20925723 79.68847656 43.24511719 C84.26061662 43.33012512 88.83270435 43.396901 93.40527344 43.45410156 C93.5211892 52.75527691 93.60999933 62.05620314 93.6643343 71.35794353 C93.69041426 75.67728397 93.72578214 79.99612978 93.7824707 84.31518555 C93.83684901 88.48437666 93.86670603 92.65309244 93.87965965 96.82261086 C93.88888922 98.41226496 93.90691301 100.00189342 93.93392372 101.59134483 C93.97029438 103.82049882 93.97521588 106.04769604 93.97290039 108.27709961 C93.98400345 109.54506882 93.99510651 110.81303802 94.00654602 112.11943054 C93.40527344 115.45410156 93.40527344 115.45410156 91.43388367 118.36222839 C87.31524971 121.2069853 84.27784667 121.15982488 79.37988281 121.10107422 C78.03021172 121.11421661 78.03021172 121.11421661 76.65327454 121.12762451 C73.68469752 121.14959676 70.71761509 121.13507341 67.74902344 121.11816406 C65.68306187 121.12153282 63.61710224 121.12638593 61.55114746 121.13265991 C57.22352205 121.14002831 52.896413 121.12932652 48.56884766 121.10595703 C43.02346445 121.0774696 37.47929116 121.09387371 31.93395233 121.12381935 C27.66850682 121.14189302 23.40334785 121.1361339 19.13789368 121.12318039 C17.09336707 121.11984659 15.04881439 121.12393254 13.00431824 121.13557816 C10.1457333 121.14828777 7.28910347 121.12890821 4.43066406 121.10107422 C3.58687698 121.11119537 2.7430899 121.12131653 1.87373352 121.13174438 C-2.10165351 121.06008489 -4.17502547 120.71387317 -7.61936951 118.58201599 C-10.50935165 114.00582213 -10.28711947 110.07406651 -10.22583008 104.76049805 C-10.23298538 103.68354675 -10.24014069 102.60659546 -10.24751282 101.49700928 C-10.2644135 97.93930573 -10.24498895 94.38285965 -10.22363281 90.82519531 C-10.22446131 88.35327551 -10.22691999 85.88135576 -10.23094177 83.40943909 C-10.23380066 78.23022875 -10.21908774 73.05145066 -10.19165039 67.87231445 C-10.15755044 61.22842287 -10.16359132 54.58530343 -10.18231297 47.94137478 C-10.1928726 42.83789109 -10.18395471 37.73458761 -10.16892815 32.63112068 C-10.16373951 30.18106687 -10.16423636 27.73099429 -10.1704731 25.28094292 C-10.17591322 21.8596525 -10.15558762 18.4394743 -10.12817383 15.01831055 C-10.13469971 14.0026149 -10.14122559 12.98691925 -10.14794922 11.94044495 C-10.05559936 5.17452935 -10.05559936 5.17452935 -7.91105652 1.82221985 C-5.05462471 0.13509554 -3.31173445 -0.02983545 0 0 Z "
    fill="#111" transform="translate(48.5947265625,29.5458984375)" />
  <path
    d="M0 0 C4.23297429 2.11648715 7.01615537 4.72722667 10.296875 8.03125 C10.89050842 8.62296997 11.48414185 9.21468994 12.09576416 9.82434082 C13.34543718 11.07265581 14.59259992 12.32348823 15.83740234 13.57666016 C17.75007952 15.50007997 19.67323119 17.41256099 21.59765625 19.32421875 C22.81053798 20.53842139 24.02279952 21.75324393 25.234375 22.96875 C25.81241882 23.54274536 26.39046265 24.11674072 26.98602295 24.70812988 C31 28.77006566 31 28.77006566 31 31 C20.77 31 10.54 31 0 31 C0 20.77 0 10.54 0 0 Z "
    fill="#111" transform="translate(107,33)" />
  <path
    d="M0 0 C1.46657043 -0.00472824 1.46657043 -0.00472824 2.96276855 -0.009552 C4.0262854 -0.00752777 5.08980225 -0.00550354 6.18554688 -0.00341797 C7.81127625 -0.00485306 7.81127625 -0.00485306 9.46984863 -0.00631714 C11.76652077 -0.00699912 14.06319482 -0.00514358 16.35986328 -0.00097656 C19.88904115 0.00437141 23.41809174 -0.00092097 26.94726562 -0.00732422 C29.17252632 -0.00666344 31.39778694 -0.00538228 33.62304688 -0.00341797 C34.68656372 -0.0054422 35.75008057 -0.00746643 36.8458252 -0.009552 C37.82353882 -0.00639984 38.80125244 -0.00324768 39.80859375 0 C40.67383667 0.00079559 41.53907959 0.00159119 42.43054199 0.00241089 C44.40429688 0.12939453 44.40429688 0.12939453 45.40429688 1.12939453 C45.52929688 4.62939453 45.52929688 4.62939453 45.40429688 8.12939453 C44.40429688 9.12939453 44.40429688 9.12939453 42.385849 9.24964905 C41.49982498 9.24742844 40.61380096 9.24520782 39.70092773 9.24291992 C38.69996567 9.24284439 37.6990036 9.24276886 36.66770935 9.24269104 C35.57918167 9.23752975 34.49065399 9.23236847 33.36914062 9.22705078 C32.26075333 9.22563583 31.15236603 9.22422089 30.01039124 9.22276306 C26.45416618 9.21714486 22.89800304 9.20458928 19.34179688 9.19189453 C16.93750091 9.18688188 14.53320396 9.18231856 12.12890625 9.17822266 C6.22068184 9.16716952 0.31249378 9.1504137 -5.59570312 9.12939453 C-5.69335938 2.97705078 -5.69335938 2.97705078 -5.59570312 1.12939453 C-3.98161063 -0.48469797 -2.23093904 0.00205135 0 0 Z "
    fill="#eee" transform="translate(70.595703125,80.87060546875)" />
  <path
    d="M0 0 C1.46657043 -0.00472824 1.46657043 -0.00472824 2.96276855 -0.009552 C4.0262854 -0.00752777 5.08980225 -0.00550354 6.18554688 -0.00341797 C7.81127625 -0.00485306 7.81127625 -0.00485306 9.46984863 -0.00631714 C11.76652077 -0.00699912 14.06319482 -0.00514358 16.35986328 -0.00097656 C19.88904115 0.00437141 23.41809174 -0.00092097 26.94726562 -0.00732422 C29.17252632 -0.00666344 31.39778694 -0.00538228 33.62304688 -0.00341797 C34.68656372 -0.0054422 35.75008057 -0.00746643 36.8458252 -0.009552 C37.82353882 -0.00639984 38.80125244 -0.00324768 39.80859375 0 C40.67383667 0.00079559 41.53907959 0.00159119 42.43054199 0.00241089 C44.40429688 0.12939453 44.40429688 0.12939453 45.40429688 1.12939453 C45.52929688 4.62939453 45.52929688 4.62939453 45.40429688 8.12939453 C43.79020438 9.74348703 42.03953279 9.25673771 39.80859375 9.25878906 C38.34202332 9.2635173 38.34202332 9.2635173 36.8458252 9.26834106 C35.78230835 9.26631683 34.7187915 9.2642926 33.62304688 9.26220703 C31.9973175 9.26364212 31.9973175 9.26364212 30.33874512 9.2651062 C28.04207298 9.26578818 25.74539893 9.26393264 23.44873047 9.25976562 C19.9195526 9.25441765 16.39050201 9.25971003 12.86132812 9.26611328 C10.63606743 9.2654525 8.41080681 9.26417135 6.18554688 9.26220703 C5.12203003 9.26423126 4.05851318 9.26625549 2.96276855 9.26834106 C1.98505493 9.2651889 1.00734131 9.26203674 0 9.25878906 C-0.86524292 9.25799347 -1.73048584 9.25719788 -2.62194824 9.25637817 C-4.59570312 9.12939453 -4.59570312 9.12939453 -5.59570312 8.12939453 C-5.72070312 4.62939453 -5.72070312 4.62939453 -5.59570312 1.12939453 C-3.98161063 -0.48469797 -2.23093904 0.00205135 0 0 Z "
    fill="#eee" transform="translate(70.595703125,114.87060546875)" />
  <path
    d="M0 0 C16.83 0 33.66 0 51 0 C51 2.31 51 4.62 51 7 C49.3859075 8.6140925 47.63523592 8.12734318 45.40429688 8.12939453 C43.93772644 8.13412277 43.93772644 8.13412277 42.44152832 8.13894653 C41.37801147 8.1369223 40.31449463 8.13489807 39.21875 8.1328125 C37.59302063 8.13424759 37.59302063 8.13424759 35.93444824 8.13571167 C33.6377761 8.13639365 31.34110205 8.13453811 29.04443359 8.13037109 C25.51525572 8.12502312 21.98620513 8.1303155 18.45703125 8.13671875 C16.23177055 8.13605797 14.00650993 8.13477682 11.78125 8.1328125 C10.71773315 8.13483673 9.65421631 8.13686096 8.55847168 8.13894653 C7.58075806 8.13579437 6.60304443 8.13264221 5.59570312 8.12939453 C4.73046021 8.12859894 3.86521729 8.12780334 2.97375488 8.12698364 C1 8 1 8 0 7 C0 4.69 0 2.38 0 0 Z "
    fill="#eee" transform="translate(65,99)" />
</svg>
