<svg viewBox="0 0 53.505 53.505">
  <path fill="#fff" d="M0 0h53.505v53.505H0z"/>
  <path d="M28.323 6.463a.504.504 0 0 0-.288.113c-.062.053-.378.465-.703.915l-.59.819-.176.01c-.425.024-.35.084-1.028-.8-.337-.44-.662-.837-.72-.883a.69.69 0 0 0-.262-.114c-.132-.023-.177-.015-.31.055a.662.662 0 0 0-.222.186c-.036.059-.248.51-.473 1.004-.45.993-.391.92-.81.992l-.174.03-.761-.662c-.419-.365-.82-.694-.893-.732-.248-.129-.607-.007-.718.244-.027.063-.15.545-.273 1.072-.123.528-.24.979-.261 1.005-.02.025-.143.09-.272.145l-.235.1-.928-.536c-.882-.508-.94-.536-1.118-.529a.516.516 0 0 0-.305.091c-.207.147-.238.292-.269 1.304-.016.506-.032.975-.036 1.043-.006.106-.035.14-.24.274l-.234.154-.983-.332c-1.1-.372-1.235-.394-1.429-.228a.949.949 0 0 0-.184.232c-.08.155-.077.185.13 1.419.08.464.14.862.134.883-.005.02-.093.12-.194.221l-.185.185-1.007-.13c-.554-.072-1.073-.122-1.153-.113a.544.544 0 0 0-.464.586c.008.08.176.574.372 1.097l.355.951-.137.222c-.076.121-.153.23-.172.24-.019.01-.42.04-.89.07-1.248.078-1.278.083-1.41.196a.943.943 0 0 0-.184.23c-.12.228-.067.355.546 1.34l.548.88-.098.264c-.084.232-.111.269-.213.298-.064.02-.518.141-1.007.272-.978.26-1.113.323-1.208.558a.514.514 0 0 0-.02.319c.034.174.074.224.77.967l.733.783-.044.252a1.22 1.22 0 0 1-.08.297c-.02.026-.433.243-.919.482-.485.24-.927.47-.982.51-.208.159-.253.529-.089.74.045.057.46.377.923.71l.84.607.006.208c.004.114.004.246 0 .29-.005.06-.21.237-.79.683-.43.332-.822.642-.87.69a.664.664 0 0 0-.132.258c-.038.146-.035.191.018.315.034.08.11.182.17.23.058.045.52.27 1.025.5.682.31.926.437.944.494.014.043.044.17.067.282l.042.205-.68.782c-.376.429-.706.835-.737.901-.113.243.015.594.255.699.062.028.544.152 1.071.275.528.122.98.24 1.005.26.025.02.09.143.146.272l.1.234-.537.93c-.508.881-.535.94-.529 1.116.006.137.03.22.091.306.148.208.292.237 1.305.27.506.014.975.03 1.041.034.107.006.142.036.277.243l.154.234-.331.978c-.182.537-.334 1.032-.337 1.1a.464.464 0 0 0 .168.398c.22.207.235.207 1.299.038a28.47 28.47 0 0 0 1.063-.182c.096-.026.129-.008.311.174l.205.204-.13 1.007c-.072.554-.122 1.072-.112 1.151.034.281.304.496.585.465.08-.007.574-.175 1.097-.371l.952-.356.221.137c.122.076.23.153.24.172.01.02.041.42.07.89.078 1.249.083 1.278.196 1.41a.943.943 0 0 0 .232.184c.226.119.354.067 1.34-.546l.881-.547.267.1c.147.052.27.105.27.116.019.163.542 1.991.598 2.088a.603.603 0 0 0 .224.208c.123.063.178.068.34.036.185-.038.224-.068.976-.773l.783-.733.251.045c.139.024.273.06.299.08.025.019.242.432.482.918.24.485.47.928.51.982.165.219.542.255.754.074.063-.053.379-.465.704-.915l.589-.82.231-.014c.127-.007.26-.01.296-.004.036.006.34.37.676.81.337.438.642.824.677.858a.722.722 0 0 0 .219.112c.19.063.261.055.438-.052.168-.1.194-.148.69-1.244.204-.45.398-.83.431-.845a2.12 2.12 0 0 1 .29-.063l.228-.037.761.662c.418.365.82.694.892.732.248.128.607.007.717-.244.028-.063.152-.545.275-1.072.122-.527.24-.98.26-1.005.021-.025.143-.09.272-.145l.235-.101.93.536c.88.508.938.536 1.115.53a.514.514 0 0 0 .306-.091c.208-.148.239-.292.27-1.305.014-.505.03-.975.034-1.042.006-.106.037-.14.243-.276l.235-.154.981.333c1.099.373 1.234.395 1.428.228a.949.949 0 0 0 .184-.232c.08-.155.078-.185-.13-1.419a13.48 13.48 0 0 1-.134-.882c.006-.02.093-.121.194-.222l.184-.184 1.009.13c.554.071 1.072.122 1.152.112a.544.544 0 0 0 .464-.585c-.007-.08-.175-.574-.371-1.097l-.356-.952.137-.221c.076-.122.153-.23.172-.24.02-.01.42-.041.89-.07 1.249-.079 1.278-.082 1.41-.196a.947.947 0 0 0 .184-.232c.12-.227.067-.353-.546-1.338l-.547-.881.097-.263c.085-.232.111-.269.214-.3.064-.018.516-.14 1.005-.27.979-.262 1.114-.324 1.21-.559a.513.513 0 0 0 .018-.319c-.033-.173-.072-.223-.769-.966l-.733-.783.044-.25c.025-.14.06-.274.08-.299.02-.025.433-.241.917-.48.484-.24.926-.47.982-.512.22-.166.258-.542.076-.755-.053-.063-.465-.38-.916-.704l-.04-.03-.418-1.42c.129-.106.263-.215.43-.342.438-.336.83-.648.87-.693a.726.726 0 0 0 .114-.248c.036-.14.033-.187-.02-.31a.686.686 0 0 0-.169-.228c-.06-.047-.52-.272-1.024-.5-.504-.229-.928-.444-.941-.477a2.196 2.196 0 0 1-.063-.288l-.038-.228.663-.76c.364-.42.693-.821.73-.894.13-.249.008-.607-.245-.718-.064-.029-.546-.152-1.072-.275-.527-.123-.977-.24-1.002-.26a1.114 1.114 0 0 1-.13-.24l-.092-.308.512-.887c.508-.882.536-.94.529-1.117a.515.515 0 0 0-.091-.306c-.147-.207-.292-.237-1.305-.268-.505-.016-.974-.032-1.04-.036-.107-.006-.142-.036-.277-.242l-.154-.235.333-.982c.372-1.098.395-1.233.227-1.427a.937.937 0 0 0-.232-.184c-.155-.08-.184-.078-1.418.13-.465.078-.862.14-.883.134a1.344 1.344 0 0 1-.221-.194l-.184-.184.13-1.009c.071-.554.122-1.072.112-1.152a.544.544 0 0 0-.586-.465c-.08.01-.573.176-1.097.372l-.952.356-.221-.137a1.353 1.353 0 0 1-.238-.172 13.28 13.28 0 0 1-.072-.89c-.078-1.249-.082-1.279-.195-1.412a.938.938 0 0 0-.232-.183c-.227-.119-.355-.066-1.34.546l-.88.548-.268-.098a1.525 1.525 0 0 1-.27-.116c-.02-.165-.543-1.994-.598-2.09a.608.608 0 0 0-.224-.208c-.124-.063-.178-.068-.34-.036-.186.038-.225.068-.977.772l-.783.734-.25-.045a1.24 1.24 0 0 1-.3-.08c-.025-.019-.242-.432-.481-.918-.24-.485-.47-.927-.511-.982a.531.531 0 0 0-.466-.187Zm-.529 5.365.175.005c.585.02 1.797.231 2.687.469 1.108.295 2.178.723 3.187 1.266L22.204 25.78l14.885-2.792-4.668 5.588 9.262-.822a14.745 14.745 0 0 1-1.179 4.91c-.429.998-1.057 2.108-1.619 2.858l-.159.213-1.405-.063c-.975-.043-1.468-.05-1.605-.021-.392.078-.726.379-.848.759-.045.144-.076.548-.116 1.522-.029.73-.056 1.37-.06 1.424-.007.08-.059.127-.289.267-1.187.717-2.581 1.284-4.157 1.691-.483.124-2.556.397-3.107.408-1.597.034-3.347-.208-4.794-.662-.364-.114-.428-.147-.453-.228a163.7 163.7 0 0 1-.386-1.374c-.26-.934-.383-1.327-.46-1.456a1.143 1.143 0 0 0-1-.546c-.139.004-.617.123-1.556.387l-1.356.379-.202-.17c-.718-.602-1.583-1.54-2.227-2.414-1.185-1.61-1.979-3.311-2.513-5.392-.207-.804-.45-2.95-.408-3.61.006-.115.046-.145 1.2-.908 1.283-.848 1.401-.949 1.528-1.305.055-.156.06-.247.033-.498l-.035-.308-.82-1.237-.821-1.235.082-.2a17.689 17.689 0 0 1 .697-1.427 14.982 14.982 0 0 1 7.936-6.814c.235-.087.502-.178.593-.203l.166-.044 1.138.898c1.299 1.027 1.384 1.075 1.845 1.021.46-.053.533-.119 1.566-1.414z"/>
</svg>
