<?xml version="1.0" encoding="UTF-8" standalone="no"?>
<svg
  viewBox="0 0 53.505 53.505"
  version="1.1"
  width="53.505"
  height="53.505"
  xmlns="http://www.w3.org/2000/svg"
  xmlns:svg="http://www.w3.org/2000/svg">
  <path
    fill="#ffffff"
    d="M 0,0 H 53.505 V 53.505 H 0 Z" />
  <path
    d="M 28.323,6.463 A 0.504,0.504 0 0 0 28.035,6.576 C 27.973,6.629 27.657,7.041 27.332,7.491 L 26.742,8.31 26.566,8.32 C 26.141,8.344 26.216,8.404 25.538,7.52 25.201,7.08 24.876,6.683 24.818,6.637 A 0.69,0.69 0 0 0 24.556,6.523 C 24.424,6.5 24.379,6.508 24.246,6.578 a 0.662,0.662 0 0 0 -0.222,0.186 c -0.036,0.059 -0.248,0.51 -0.473,1.004 -0.45,0.993 -0.391,0.92 -0.81,0.992 L 22.567,8.79 21.806,8.128 C 21.387,7.763 20.986,7.434 20.913,7.396 20.665,7.267 20.306,7.389 20.195,7.64 c -0.027,0.063 -0.15,0.545 -0.273,1.072 -0.123,0.528 -0.24,0.979 -0.261,1.005 -0.02,0.025 -0.143,0.09 -0.272,0.145 l -0.235,0.1 -0.928,-0.536 C 17.344,8.918 17.286,8.89 17.108,8.897 a 0.516,0.516 0 0 0 -0.305,0.091 c -0.207,0.147 -0.238,0.292 -0.269,1.304 -0.016,0.506 -0.032,0.975 -0.036,1.043 -0.006,0.106 -0.035,0.14 -0.24,0.274 l -0.234,0.154 -0.983,-0.332 c -1.1,-0.372 -1.235,-0.394 -1.429,-0.228 a 0.949,0.949 0 0 0 -0.184,0.232 c -0.08,0.155 -0.077,0.185 0.13,1.419 0.08,0.464 0.14,0.862 0.134,0.883 -0.005,0.02 -0.093,0.12 -0.194,0.221 l -0.185,0.185 -1.007,-0.13 C 11.752,13.941 11.233,13.891 11.153,13.9 a 0.544,0.544 0 0 0 -0.464,0.586 c 0.008,0.08 0.176,0.574 0.372,1.097 l 0.355,0.951 -0.137,0.222 c -0.076,0.121 -0.153,0.23 -0.172,0.24 -0.019,0.01 -0.42,0.04 -0.89,0.07 -1.248,0.078 -1.278,0.083 -1.41,0.196 a 0.943,0.943 0 0 0 -0.184,0.23 c -0.12,0.228 -0.067,0.355 0.546,1.34 l 0.548,0.88 -0.098,0.264 c -0.084,0.232 -0.111,0.269 -0.213,0.298 -0.064,0.02 -0.518,0.141 -1.007,0.272 -0.978,0.26 -1.113,0.323 -1.208,0.558 a 0.514,0.514 0 0 0 -0.02,0.319 c 0.034,0.174 0.074,0.224 0.77,0.967 l 0.733,0.783 -0.044,0.252 a 1.22,1.22 0 0 1 -0.08,0.297 c -0.02,0.026 -0.433,0.243 -0.919,0.482 -0.485,0.24 -0.927,0.47 -0.982,0.51 -0.208,0.159 -0.253,0.529 -0.089,0.74 0.045,0.057 0.46,0.377 0.923,0.71 l 0.84,0.607 0.006,0.208 c 0.004,0.114 0.004,0.246 0,0.29 -0.005,0.06 -0.21,0.237 -0.79,0.683 -0.43,0.332 -0.822,0.642 -0.87,0.69 A 0.664,0.664 0 0 0 6.537,28.9 c -0.038,0.146 -0.035,0.191 0.018,0.315 0.034,0.08 0.11,0.182 0.17,0.23 0.058,0.045 0.52,0.27 1.025,0.5 0.682,0.31 0.926,0.437 0.944,0.494 0.014,0.043 0.044,0.17 0.067,0.282 l 0.042,0.205 -0.68,0.782 c -0.376,0.429 -0.706,0.835 -0.737,0.901 -0.113,0.243 0.015,0.594 0.255,0.699 0.062,0.028 0.544,0.152 1.071,0.275 0.528,0.122 0.98,0.24 1.005,0.26 0.025,0.02 0.09,0.143 0.146,0.272 l 0.1,0.234 -0.537,0.93 c -0.508,0.881 -0.535,0.94 -0.529,1.116 0.006,0.137 0.03,0.22 0.091,0.306 0.148,0.208 0.292,0.237 1.305,0.27 0.506,0.014 0.975,0.03 1.041,0.034 0.107,0.006 0.142,0.036 0.277,0.243 l 0.154,0.234 -0.331,0.978 c -0.182,0.537 -0.334,1.032 -0.337,1.1 a 0.464,0.464 0 0 0 0.168,0.398 c 0.22,0.207 0.235,0.207 1.299,0.038 a 28.47,28.47 0 0 0 1.063,-0.182 c 0.096,-0.026 0.129,-0.008 0.311,0.174 l 0.205,0.204 -0.13,1.007 c -0.072,0.554 -0.122,1.072 -0.112,1.151 0.034,0.281 0.304,0.496 0.585,0.465 0.08,-0.007 0.574,-0.175 1.097,-0.371 l 0.952,-0.356 0.221,0.137 c 0.122,0.076 0.23,0.153 0.24,0.172 0.01,0.02 0.041,0.42 0.07,0.89 0.078,1.249 0.083,1.278 0.196,1.41 a 0.943,0.943 0 0 0 0.232,0.184 c 0.226,0.119 0.354,0.067 1.34,-0.546 l 0.881,-0.547 0.267,0.1 c 0.147,0.052 0.27,0.105 0.27,0.116 0.019,0.163 0.542,1.991 0.598,2.088 a 0.603,0.603 0 0 0 0.224,0.208 c 0.123,0.063 0.178,0.068 0.34,0.036 0.185,-0.038 0.224,-0.068 0.976,-0.773 l 0.783,-0.733 0.251,0.045 c 0.139,0.024 0.273,0.06 0.299,0.08 0.025,0.019 0.242,0.432 0.482,0.918 0.24,0.485 0.47,0.928 0.51,0.982 0.165,0.219 0.542,0.255 0.754,0.074 0.063,-0.053 0.379,-0.465 0.704,-0.915 l 0.589,-0.82 0.231,-0.014 c 0.127,-0.007 0.26,-0.01 0.296,-0.004 0.036,0.006 0.34,0.37 0.676,0.81 0.337,0.438 0.642,0.824 0.677,0.858 a 0.722,0.722 0 0 0 0.219,0.112 c 0.19,0.063 0.261,0.055 0.438,-0.052 0.168,-0.1 0.194,-0.148 0.69,-1.244 0.204,-0.45 0.398,-0.83 0.431,-0.845 a 2.12,2.12 0 0 1 0.29,-0.063 l 0.228,-0.037 0.761,0.662 c 0.418,0.365 0.82,0.694 0.892,0.732 0.248,0.128 0.607,0.007 0.717,-0.244 0.028,-0.063 0.152,-0.545 0.275,-1.072 0.122,-0.527 0.24,-0.98 0.26,-1.005 0.021,-0.025 0.143,-0.09 0.272,-0.145 l 0.235,-0.101 0.93,0.536 c 0.88,0.508 0.938,0.536 1.115,0.53 a 0.514,0.514 0 0 0 0.306,-0.091 c 0.208,-0.148 0.239,-0.292 0.27,-1.305 0.014,-0.505 0.03,-0.975 0.034,-1.042 0.006,-0.106 0.037,-0.14 0.243,-0.276 l 0.235,-0.154 0.981,0.333 c 1.099,0.373 1.234,0.395 1.428,0.228 a 0.949,0.949 0 0 0 0.184,-0.232 c 0.08,-0.155 0.078,-0.185 -0.13,-1.419 a 13.48,13.48 0 0 1 -0.134,-0.882 c 0.006,-0.02 0.093,-0.121 0.194,-0.222 l 0.184,-0.184 1.009,0.13 c 0.554,0.071 1.072,0.122 1.152,0.112 a 0.544,0.544 0 0 0 0.464,-0.585 c -0.007,-0.08 -0.175,-0.574 -0.371,-1.097 l -0.356,-0.952 0.137,-0.221 c 0.076,-0.122 0.153,-0.23 0.172,-0.24 0.02,-0.01 0.42,-0.041 0.89,-0.07 1.249,-0.079 1.278,-0.082 1.41,-0.196 a 0.947,0.947 0 0 0 0.184,-0.232 c 0.12,-0.227 0.067,-0.353 -0.546,-1.338 l -0.547,-0.881 0.097,-0.263 c 0.085,-0.232 0.111,-0.269 0.214,-0.3 0.064,-0.018 0.516,-0.14 1.005,-0.27 0.979,-0.262 1.114,-0.324 1.21,-0.559 a 0.513,0.513 0 0 0 0.018,-0.319 C 46.299,31.908 46.26,31.858 45.563,31.115 l -0.733,-0.783 0.044,-0.25 c 0.025,-0.14 0.06,-0.274 0.08,-0.299 0.02,-0.025 0.433,-0.241 0.917,-0.48 0.484,-0.24 0.926,-0.47 0.982,-0.512 0.22,-0.166 0.258,-0.542 0.076,-0.755 -0.053,-0.063 -0.465,-0.38 -0.916,-0.704 l -0.04,-0.03 -0.418,-1.42 c 0.129,-0.106 0.263,-0.215 0.43,-0.342 0.438,-0.336 0.83,-0.648 0.87,-0.693 a 0.726,0.726 0 0 0 0.114,-0.248 c 0.036,-0.14 0.033,-0.187 -0.02,-0.31 A 0.686,0.686 0 0 0 46.78,24.061 c -0.06,-0.047 -0.52,-0.272 -1.024,-0.5 -0.504,-0.229 -0.928,-0.444 -0.941,-0.477 a 2.196,2.196 0 0 1 -0.063,-0.288 l -0.038,-0.228 0.663,-0.76 c 0.364,-0.42 0.693,-0.821 0.73,-0.894 0.13,-0.249 0.008,-0.607 -0.245,-0.718 -0.064,-0.029 -0.546,-0.152 -1.072,-0.275 -0.527,-0.123 -0.977,-0.24 -1.002,-0.26 a 1.114,1.114 0 0 1 -0.13,-0.24 l -0.092,-0.308 0.512,-0.887 c 0.508,-0.882 0.536,-0.94 0.529,-1.117 a 0.515,0.515 0 0 0 -0.091,-0.306 c -0.147,-0.207 -0.292,-0.237 -1.305,-0.268 -0.505,-0.016 -0.974,-0.032 -1.04,-0.036 -0.107,-0.006 -0.142,-0.036 -0.277,-0.242 L 41.74,16.022 42.073,15.04 c 0.372,-1.098 0.395,-1.233 0.227,-1.427 a 0.937,0.937 0 0 0 -0.232,-0.184 c -0.155,-0.08 -0.184,-0.078 -1.418,0.13 -0.465,0.078 -0.862,0.14 -0.883,0.134 a 1.344,1.344 0 0 1 -0.221,-0.194 l -0.184,-0.184 0.13,-1.009 c 0.071,-0.554 0.122,-1.072 0.112,-1.152 a 0.544,0.544 0 0 0 -0.586,-0.465 c -0.08,0.01 -0.573,0.176 -1.097,0.372 L 36.969,11.417 36.748,11.28 A 1.353,1.353 0 0 1 36.51,11.108 13.28,13.28 0 0 1 36.438,10.218 C 36.36,8.969 36.356,8.939 36.243,8.806 A 0.938,0.938 0 0 0 36.011,8.623 C 35.784,8.504 35.656,8.557 34.671,9.169 L 33.791,9.717 33.523,9.619 A 1.525,1.525 0 0 1 33.253,9.503 C 33.233,9.338 32.71,7.509 32.655,7.413 A 0.608,0.608 0 0 0 32.431,7.205 C 32.307,7.142 32.253,7.137 32.091,7.169 31.905,7.207 31.866,7.237 31.114,7.941 L 30.331,8.675 30.081,8.63 a 1.24,1.24 0 0 1 -0.3,-0.08 C 29.756,8.531 29.539,8.118 29.3,7.632 29.06,7.147 28.83,6.705 28.789,6.65 A 0.531,0.531 0 0 0 28.323,6.463 Z m -0.529,5.365 0.175,0.005 c 0.585,0.02 1.797,0.231 2.687,0.469 1.108,0.295 2.178,0.723 3.187,1.266 l -11.639,12.212 14.885,-2.792 -4.668,5.588 9.262,-0.822 a 14.745,14.745 0 0 1 -1.179,4.91 c -0.429,0.998 -1.057,2.108 -1.619,2.858 l -0.159,0.213 -1.405,-0.063 c -0.975,-0.043 -1.468,-0.05 -1.605,-0.021 -0.392,0.078 -0.726,0.379 -0.848,0.759 -0.045,0.144 -0.076,0.548 -0.116,1.522 -0.029,0.73 -0.056,1.37 -0.06,1.424 -0.007,0.08 -0.059,0.127 -0.289,0.267 -1.187,0.717 -2.581,1.284 -4.157,1.691 -0.483,0.124 -2.556,0.397 -3.107,0.408 -1.597,0.034 -3.347,-0.208 -4.794,-0.662 -0.364,-0.114 -0.428,-0.147 -0.453,-0.228 a 163.7,163.7 0 0 1 -0.386,-1.374 c -0.26,-0.934 -0.383,-1.327 -0.46,-1.456 a 1.143,1.143 0 0 0 -1,-0.546 c -0.139,0.004 -0.617,0.123 -1.556,0.387 l -1.356,0.379 -0.202,-0.17 c -0.718,-0.602 -1.583,-1.54 -2.227,-2.414 -1.185,-1.61 -1.979,-3.311 -2.513,-5.392 -0.207,-0.804 -0.45,-2.95 -0.408,-3.61 0.006,-0.115 0.046,-0.145 1.2,-0.908 1.283,-0.848 1.401,-0.949 1.528,-1.305 0.055,-0.156 0.06,-0.247 0.033,-0.498 l -0.035,-0.308 -0.82,-1.237 -0.821,-1.235 0.082,-0.2 a 17.689,17.689 0 0 1 0.697,-1.427 14.982,14.982 0 0 1 7.936,-6.814 c 0.235,-0.087 0.502,-0.178 0.593,-0.203 l 0.166,-0.044 1.138,0.898 c 1.299,1.027 1.384,1.075 1.845,1.021 0.46,-0.053 0.533,-0.119 1.566,-1.414 z" />
</svg>
