<svg xmlns="http://www.w3.org/2000/svg" xmlns:xlink="http://www.w3.org/1999/xlink" viewBox="0 0 541821.75 47375.852">
  <g transform="translate(-23695.082 -11446.088)">
    <path fill="#fa2921" d="M114.82 96.21c11.92 10.55 21.52 21.86 27.7 32.52 10.62-18.99 17.71-41.55 17.8-55.92v-.28c0-21.26-21.21-29.54-39.48-29.54-18.27 0-39.48 8.28-39.48 29.54v1.15c10.18 4.52 22.25 12.61 33.46 22.53z" />
    <path fill="#ed79b5" d="M49.8 154.19c7.45-8.29 18.88-17.27 31.77-24.86 13.72-8.07 27.44-13.71 39.49-16.3-14.78-15.96-34.04-29.68-47.68-34.21-.1-.03-.18-.06-.27-.09-20.22-6.57-34.65 11.05-40.3 28.42-5.65 17.37-4.33 40.11 15.89 46.68.29.1.65.22 1.1.36z" />
    <path fill="#ffb400" d="M209.07 106.86c-5.65-17.38-20.07-34.99-40.3-28.42-.28.09-.65.21-1.09.35-1.16 11.08-5.12 25.07-11.09 38.79-6.35 14.6-14.14 27.23-22.36 36.39 21.34 4.23 44.99 4 58.68-.35.1-.03.19-.06.27-.09 20.22-6.56 21.53-29.29 15.89-46.67z" />
    <path fill="#1e83f7" d="M102.8 171.18c-3.44-15.54-4.56-30.34-3.3-42.59-19.75 9.12-38.75 23.2-47.27 34.78-.06.08-.11.16-.16.23-12.5 17.2-.2 36.37 14.58 47.11 14.78 10.74 36.81 16.51 49.31-.69.17-.24.4-.55.68-.93-5.59-9.65-10.6-23.3-13.84-37.91z" />
    <path fill="#18c249" d="M189.48 162.49c-10.9 2.33-25.42 2.88-40.32 1.44-15.84-1.53-30.26-5.03-41.52-10.02 2.57 21.6 10.09 44.02 18.47 55.7.06.08.11.16.16.23 12.5 17.2 34.52 11.43 49.31.69 14.78-10.74 27.08-29.9 14.58-47.11-.17-.24-.4-.56-.68-.93z" />
  </g>
  <g fill="#accbfa" transform="translate(-23695.082 -11446.088)">
    <path id="path1166" d="M359.036 127.232q0 8.5-2.437 15.562-2.438 7-6.875 11.875-4.125 4.625-9.75 7.188-5.563 2.5-11.813 2.5-5.437 0-9.875-1.188-4.375-1.187-8.937-3.687v29.25h-11.75V93.169h11.75v7.313q4.687-3.938 10.5-6.563 5.875-2.687 12.5-2.687 12.625 0 19.625 9.562 7.062 9.5 7.062 26.438zm-12.125.312q0-12.625-4.312-18.875-4.313-6.25-13.25-6.25-5.063 0-10.188 2.188-5.125 2.187-9.812 5.75v39.562q5 2.25 8.562 3.063 3.625.812 8.188.812 9.812 0 15.312-6.625t5.5-19.625z" />
    <path id="path1168" d="M435.724 162.982h-11.75v-39.75q0-4.813-.563-9-.562-4.25-2.062-6.625-1.563-2.625-4.5-3.875-2.938-1.313-7.625-1.313-4.813 0-10.063 2.375-5.25 2.375-10.062 6.063v52.125h-11.75v-97.25h11.75v35.187q5.5-4.562 11.375-7.125 5.875-2.562 12.062-2.562 11.313 0 17.25 6.812 5.938 6.813 5.938 19.625z" />
    <path id="path1170" d="M517.849 128.107q0 17.062-8.75 26.937t-23.438 9.875q-14.812 0-23.562-9.875-8.688-9.875-8.688-26.937 0-17.063 8.688-26.938 8.75-9.937 23.562-9.937 14.688 0 23.438 9.937 8.75 9.875 8.75 26.938zm-12.125 0q0-13.563-5.313-20.125-5.312-6.625-14.75-6.625-9.562 0-14.875 6.625-5.25 6.562-5.25 20.125 0 13.125 5.313 19.937 5.312 6.75 14.812 6.75 9.375 0 14.688-6.687 5.375-6.75 5.375-20z" />
    <path id="path1172" d="M572.286 162.357q-3.312.875-7.25 1.437-3.875.563-6.937.563-10.688 0-16.25-5.75-5.563-5.75-5.563-18.438v-37.125h-7.937V93.17h7.937V73.107h11.75v20.062h24.25v9.875h-24.25v31.813q0 5.5.25 8.625.25 3.062 1.75 5.75 1.375 2.5 3.75 3.687 2.438 1.125 7.375 1.125 2.875 0 6-.812 3.125-.875 4.5-1.438h.625z" />
    <path id="path1174" d="M645.974 128.107q0 17.062-8.75 26.937t-23.438 9.875q-14.812 0-23.562-9.875-8.688-9.875-8.688-26.937 0-17.063 8.688-26.938 8.75-9.937 23.562-9.937 14.688 0 23.438 9.937 8.75 9.875 8.75 26.938zm-12.125 0q0-13.563-5.313-20.125-5.312-6.625-14.75-6.625-9.562 0-14.875 6.625-5.25 6.562-5.25 20.125 0 13.125 5.313 19.937 5.312 6.75 14.812 6.75 9.375 0 14.688-6.687 5.375-6.75 5.375-20z" />
    <path id="path1176" d="M714.036 142.857q0 9.562-7.937 15.687-7.875 6.125-21.563 6.125-7.75 0-14.25-1.812-6.437-1.875-10.812-4.063v-13.187h.625q5.562 4.187 12.375 6.687 6.812 2.438 13.062 2.438 7.75 0 12.125-2.5t4.375-7.875q0-4.125-2.375-6.25t-9.125-3.625q-2.5-.563-6.562-1.313-4-.75-7.313-1.625-9.187-2.437-13.062-7.125-3.813-4.75-3.813-11.625 0-4.312 1.75-8.125 1.813-3.812 5.438-6.812 3.5-2.938 8.875-4.625 5.437-1.75 12.125-1.75 6.25 0 12.625 1.562 6.437 1.5 10.687 3.688v12.562h-.625q-4.5-3.312-10.937-5.562-6.438-2.313-12.625-2.313-6.438 0-10.875 2.5-4.438 2.438-4.438 7.313 0 4.312 2.688 6.5 2.625 2.187 8.5 3.562 3.25.75 7.25 1.5 4.062.75 6.75 1.375 8.187 1.875 12.625 6.438 4.437 4.625 4.437 12.25z" />
  </g>
</svg>
